<?xml version="1.0" encoding="UTF-8"?>
<svg xmlns="http://www.w3.org/2000/svg" width="120" height="120" viewBox="0 0 24 24" fill="none">
  
  <path d="M8 3.5 C5.5 3.5 5.5 6 5.5 8 C5.5 10.5 4 11 3 12 C4 13 5.5 13.5 5.5 16 C5.5 18 5.5 20.5 8 20.5" stroke="#1a1a1a" stroke-width="2" stroke-linecap="round" stroke-linejoin="round"></path>
  
  <path d="M16 3.5 C18.5 3.5 18.5 6 18.5 8 C18.5 10.5 20 11 21 12 C20 13 18.5 13.5 18.5 16 C18.5 18 18.5 20.5 16 20.5" stroke="#1a1a1a" stroke-width="2" stroke-linecap="round" stroke-linejoin="round"></path>
  
  <path d="M10 6 Q14 12 10 18" stroke="#c97a3a" stroke-width="2" stroke-linecap="round"></path>
  <path d="M14 6 Q10 12 14 18" stroke="#3f8a5e" stroke-width="2" stroke-linecap="round"></path>
</svg>